<?xml version="1.0" encoding="utf-8"?>
<svg version="1.1" id="Capa_1" x="0px" y="0px" viewBox="0 0 304 247.2" height="247.2" width="395.52" preserveAspectRatio="xMinYMid slice" xmlns="http://www.w3.org/2000/svg">
  <g transform="matrix(1, 0, 0, 1, -45.760017, 0)">
    <path d="M274.808 36.075c-0.714 1.207-1.219 2.476-1.515 3.806-0.296 1.33-0.505 2.648-0.628 3.954h-1.256c-0.985 0-1.835-0.148-2.55-0.443-0.714-0.296-1.552-0.567-2.513-0.813 0.241 2.362 0.437 4.738 0.587 7.126l-15.553 0c0.003-1.222 0.028-2.477 0.074-3.763 0.049-1.404 0.259-2.759 0.628-4.065-0.714-1.084-1.17-2.143-1.367-3.178-0.172-1.01-0.32-1.934-0.444-2.772l-0.369-2.734c-0.099-0.961-0.456-1.922-1.072-2.883-0.123-0.123-0.185-0.48-0.185-1.071 0-0.961 0.246-1.688 0.739-2.181-0.616-2.045-1.429-4.028-2.439-5.949-1.035-1.922-1.663-4.028-1.884-6.319-1.33-0.714-2.328-1.885-2.994-3.511-0.665-1.626-0.998-3.104-0.997-4.434 0-1.552 0.419-3.079 1.256-4.582 0.862-1.503 2.193-2.254 3.991-2.255 0.714 0 1.404 0.209 2.07 0.629 0.665 0.419 1.33 0.899 1.995 1.441 0.665 0.542 1.318 1.022 1.959 1.441 0.665 0.419 1.367 0.628 2.106 0.628 0.468 0 1.183-0.123 2.143-0.369 1.33 1.823 2.685 3.486 4.065 4.988 1.38 1.503 2.796 3.03 4.25 4.583 0 2.045 0.357 3.917 1.072 5.617 0.714 1.675 1.503 3.264 2.365 4.767 0.838 1.503 1.589 2.981 2.254 4.434 0.641 1.429 0.912 2.993 0.813 4.693 0.222 0.838 0.702 1.429 1.441 1.774 0.714 0.37 1.367 0.85 1.958 1.441zM246.317 200.482c-1.798 0.123-3.548 0.604-5.247 1.441-1.675 0.838-3.24 1.256-4.693 1.257-1.306 0-2.39-0.665-3.252-1.996l-1.774 0.739c-0.616 0.222-1.281 0.394-1.996 0.518-3.401-1.393-6.657-3.042-9.768-4.946h29.302c-0.812 1.033-1.669 2.029-2.572 2.987zM143.992 199.558c-0.246 1.798-0.517 3.634-0.813 5.506-0.296 1.872-0.53 3.683-0.702 5.433-0.197 1.725-0.296 3.129-0.295 4.212 0 1.207 0.308 2.39 0.923 3.548 0.591 1.133 0.887 2.242 0.887 3.326 0 0.838-0.271 1.343-0.813 1.515-0.542 0.197-0.875 0.653-0.997 1.367 0.862 2.636 1.293 5.642 1.293 9.017 0 0.961-0.062 1.959-0.185 2.993-0.123 1.01-0.308 1.996-0.554 2.956-0.246 0.616-0.665 1.195-1.256 1.737-0.616 0.542-0.924 1.047-0.924 1.515 0 0.493 0.246 0.862 0.739 1.109-0.714 0.714-1.614 1.195-2.698 1.441-1.084 0.222-1.872 0.875-2.365 1.959-1.207-0.961-2.402-1.835-3.584-2.624-1.207-0.764-2.353-1.626-3.437-2.587l-0.554-0.185c-0.838 0-1.527 0.271-2.07 0.813-0.542 0.542-1.232 0.813-2.069 0.813-0.246 0-0.456-0.037-0.628-0.111-0.197-0.049-0.406-0.074-0.629-0.073l-1.108-4.694c-0.345-1.577-0.825-3.018-1.441-4.323 0.961-2.537 1.601-5.395 1.921-8.573 0.296-3.203 0.616-6.418 0.961-9.645 0.37-3.252 0.912-6.356 1.626-9.313 0.739-2.956 2.069-5.506 3.991-7.649 0-0.651-0.153-1.167-0.459-1.546h15.544c-0.101 0.638-0.202 1.326-0.304 2.063zM136.971 48.344v-1.626c0-1.922-0.123-3.782-0.369-5.58-0.246-1.798-0.37-3.597-0.37-5.395v-1.626c0.616-0.246 1.072-0.665 1.367-1.257 0.296-0.616 0.505-1.219 0.629-1.811h0.739c1.429 0 2.87-0.123 4.323-0.369 1.429-0.246 2.87-0.37 4.324-0.37h2.328c1.454 1.084 2.722 2.353 3.806 3.807 1.084 1.429 2.402 2.747 3.954 3.954v3.252c1.084 1.454 1.934 3.018 2.55 4.693 0.421 1.192 0.86 2.422 1.319 3.689l-23.814 0c-0.234-0.486-0.496-0.939-0.786-1.361z" fill="#030303" data-fill-palette-color="tertiary"/>
  </g>
  <g transform="matrix(1, 0, 0, 1, 0, 56.018017)">
    <svg viewBox="0 0 304.17512044729926 135.16396656" height="135.16396656" width="304.17512044729926">
      <g>
        <svg viewBox="0 0 304.17512044729926 135.16396656" height="135.16396656" width="304.17512044729926">
          <g>
            <svg viewBox="0 0 304.17512044729926 135.16396656" height="135.16396656" width="304.17512044729926">
              <g>
                <path d="M0 135.164v-135.164h304.175v135.164z" fill="#030303" stroke="transparent" stroke-width="0" rx="0%" data-fill-palette-color="tertiary"/>
                <path d="M3.156 132.008v-128.852h297.863v128.852z" fill="#f9f9f9" stroke="transparent" stroke-width="0" rx="0%" data-fill-palette-color="quaternary"/>
                <path d="M9.469 125.695v-116.226h285.237v116.226z" fill="#030303" stroke="transparent" stroke-width="0" data-fill-palette-color="tertiary"/>
              </g>
              <g transform="matrix(1,0,0,1,18.93801672,18.93801672)">
                <svg viewBox="0 0 266.29908700729925 97.28793312" height="97.28793312" width="266.29908700729925">
                  <g>
                    <svg viewBox="0 0 266.29908700729925 97.28793312" height="97.28793312" width="266.29908700729925">
                      <g transform="matrix(1,0,0,1,0,0)">
                        <svg width="266.29908700729925" viewBox="1.5099999904632568 -54.93000030517578 183.10000610351562 66.88999938964844" height="97.28793312" data-palette-color="#f9f9f9">
                          <path d="M43.21-45.17L43.21-45.17Q42.92-44.68 42.8-44.14 42.68-43.6 42.63-43.07L42.63-43.07 42.29-43.07Q41.89-43.07 41.6-43.19 41.31-43.31 40.92-43.41L40.92-43.41Q41.11-41.55 41.16-39.65 41.21-37.74 41.21-35.89L41.21-35.89Q41.21-33.54 41.16-31.23 41.11-28.91 41.11-26.56L41.11-26.56Q41.11-25.44 40.99-24.34 40.87-23.24 40.38-22.22L40.38-22.22Q40.48-21.39 40.53-20.63 40.58-19.87 40.58-19.04L40.58-19.04Q40.58-16.75 40.31-14.48 40.04-12.21 39.65-9.96L39.65-9.96Q39.5-9.08 39.38-8.18 39.26-7.28 39.01-6.45L39.01-6.45Q38.92-6.2 38.75-5.96 38.57-5.71 38.48-5.47L38.48-5.47Q37.89-4.2 37.18-2.95 36.47-1.71 35.5-0.68L35.5-0.68Q34.77-0.63 34.08-0.29 33.4 0.05 32.81 0.05L32.81 0.05Q32.28 0.05 31.93-0.49L31.93-0.49 31.45-0.29Q31.2-0.2 30.91-0.15L30.91-0.15Q29.25-0.83 27.76-1.81 26.27-2.78 25.29-4.35L25.29-4.35 25.1-4.35Q24.66-4.35 24.46-4.54L24.46-4.54Q24.22-4.79 23.95-5.15 23.68-5.52 23.49-5.81L23.49-5.81Q22.9-6.74 22.22-7.67 21.53-8.59 20.61-9.23L20.61-9.23Q20.21-10.69 19.43-11.74 18.65-12.79 17.82-14.01L17.82-14.01Q17.19-16.46 15.48-18.55L15.48-18.55Q15.72-18.8 15.72-18.9L15.72-18.9Q15.72-19.14 15.55-19.31 15.38-19.48 15.38-19.68L15.38-19.68Q15.38-19.87 15.48-19.97L15.48-19.97Q14.84-20.65 14.43-21.51 14.01-22.36 13.65-23.24 13.28-24.12 12.87-25 12.45-25.88 11.87-26.61L11.87-26.61Q11.33-26.27 11.21-25.78 11.08-25.29 11.08-24.76L11.08-24.76Q11.08-24.37 11.11-23.97 11.13-23.58 11.13-23.19L11.13-23.19Q11.13-22.22 10.91-21.29 10.69-20.36 10.6-19.38L10.6-19.38Q10.55-18.7 10.57-17.87 10.6-17.04 10.52-16.21 10.45-15.38 10.25-14.6 10.06-13.82 9.57-13.28L9.57-13.28Q9.28-10.5 8.84-7.71 8.4-4.93 8.01-2.15L8.01-2.15Q7.91-1.66 7.81-0.93 7.71-0.2 7.59 0.56 7.47 1.32 7.4 2.03 7.32 2.73 7.32 3.17L7.32 3.17Q7.32 3.66 7.57 4.13 7.81 4.59 7.81 5.03L7.81 5.03Q7.81 5.37 7.59 5.44 7.37 5.52 7.32 5.81L7.32 5.81Q7.67 6.88 7.67 8.25L7.67 8.25Q7.67 8.64 7.62 9.06 7.57 9.47 7.47 9.86L7.47 9.86Q7.37 10.11 7.13 10.33 6.88 10.55 6.88 10.74L6.88 10.74Q6.88 10.94 7.08 11.04L7.08 11.04Q6.79 11.33 6.35 11.43 5.91 11.52 5.71 11.96L5.71 11.96Q5.22 11.57 4.74 11.25 4.25 10.94 3.81 10.55L3.81 10.55 3.66 10.5Q3.32 10.5 3.1 10.72 2.88 10.94 2.54 10.94L2.54 10.94Q2.44 10.94 2.37 10.91 2.29 10.89 2.2 10.89L2.2 10.89 1.9 9.62Q1.76 8.98 1.51 8.45L1.51 8.45Q1.9 7.42 2.03 6.13 2.15 4.83 2.29 3.52 2.44 2.2 2.73 1 3.03-0.2 3.81-1.07L3.81-1.07Q3.81-1.46 3.54-1.61 3.27-1.76 3.27-2.25L3.27-2.25Q3.27-2.34 3.34-2.59 3.42-2.83 3.49-3.13 3.56-3.42 3.64-3.69 3.71-3.96 3.76-4.1L3.76-4.1Q4.15-6.01 4.37-8.01 4.59-10.01 5.57-11.72L5.57-11.72Q5.52-11.91 5.52-12.3L5.52-12.3Q5.52-13.13 5.69-13.92 5.86-14.7 5.86-15.53L5.86-15.53Q5.86-16.21 5.71-16.8L5.71-16.8Q5.86-17.33 6.13-17.85 6.4-18.36 6.4-18.9L6.4-18.9Q6.4-19.38 6.05-19.58L6.05-19.58Q6.3-19.78 6.37-20.02 6.45-20.26 6.47-20.51 6.49-20.75 6.57-20.97 6.64-21.19 6.93-21.34L6.93-21.34Q6.88-21.83 6.86-22.27 6.84-22.71 6.84-23.19L6.84-23.19Q6.84-25 7.03-26.78 7.23-28.56 7.23-30.42L7.23-30.42Q7.23-32.23 6.93-33.94L6.93-33.94 7.47-35.01Q6.98-35.4 6.84-36.28 6.69-37.16 6.64-38.18 6.59-39.21 6.47-40.21 6.35-41.21 5.91-41.85L5.91-41.85 5.91-42.29Q5.91-43.07 5.81-43.8 5.71-44.53 5.71-45.26L5.71-45.26 5.71-45.7Q5.96-45.8 6.08-46.04 6.2-46.29 6.25-46.53L6.25-46.53 6.45-46.53Q7.03-46.53 7.62-46.63 8.2-46.73 8.79-46.73L8.79-46.73 9.42-46.73Q10.01-46.29 10.45-45.7 10.89-45.12 11.52-44.63L11.52-44.63 11.52-43.75Q11.96-43.16 12.21-42.48 12.45-41.8 12.72-41.06 12.99-40.33 13.28-39.65 13.57-38.96 14.11-38.48L14.11-38.48Q14.01-37.99 14.01-37.7L14.01-37.7Q14.01-37.06 14.14-36.43 14.26-35.79 14.31-35.21L14.31-35.21Q14.5-34.96 14.65-34.59 14.79-34.23 15.14-34.13L15.14-34.13Q15.38-32.23 16.14-30.52 16.89-28.81 17.24-26.95L17.24-26.95Q17.63-26.56 17.82-26 18.02-25.44 18.24-24.9 18.46-24.37 18.73-23.9 18.99-23.44 19.53-23.24L19.53-23.24Q19.82-22.07 20.26-20.9 20.7-19.73 21.63-18.9L21.63-18.9Q21.63-17.92 21.95-17.21 22.27-16.5 22.68-15.89 23.1-15.28 23.44-14.7 23.78-14.11 23.88-13.43L23.88-13.43Q24.56-12.4 25.46-11.52 26.37-10.64 27.32-9.84 28.27-9.03 29.2-8.2 30.13-7.37 30.91-6.45L30.91-6.45Q31.45-6.4 31.81-6.23 32.18-6.05 32.67-5.96L32.67-5.96Q33.01-6.2 33.23-6.57 33.45-6.93 33.64-7.32 33.84-7.71 34.06-8.08 34.28-8.45 34.62-8.74L34.62-8.74Q34.62-8.84 34.59-8.91 34.57-8.98 34.57-9.08L34.57-9.08Q34.57-9.62 34.74-9.94 34.91-10.25 35.16-10.64L35.16-10.64 35.16-11.91Q35.55-12.65 35.69-13.48 35.84-14.31 35.84-15.14L35.84-15.14Q35.84-15.82 35.79-16.53 35.74-17.24 35.74-17.97L35.74-17.97Q35.74-18.41 35.79-18.87 35.84-19.34 35.99-19.73L35.99-19.73Q36.08-19.82 36.33-20.04 36.57-20.26 36.57-20.31L36.57-20.31Q36.57-20.56 36.43-20.8 36.28-21.04 36.28-21.29L36.28-21.29Q36.28-21.63 36.57-21.83L36.57-21.83 36.57-22.12Q36.57-22.36 36.5-22.58 36.43-22.8 36.18-22.9L36.18-22.9Q36.43-23.19 36.52-23.61 36.62-24.02 36.65-24.49 36.67-24.95 36.65-25.39 36.62-25.83 36.62-26.22L36.62-26.22Q36.62-26.66 36.67-27.15 36.72-27.64 37.06-27.98L37.06-27.98Q36.91-28.56 36.87-29.13 36.82-29.69 36.82-30.27L36.82-30.27Q36.82-31.3 36.91-32.32 37.01-33.35 37.01-34.42L37.01-34.42Q37.01-34.81 36.96-35.23 36.91-35.64 36.91-36.04L36.91-36.04Q36.91-36.43 37.08-36.4 37.26-36.38 37.26-36.62L37.26-36.62Q37.26-36.96 37.18-37.3 37.11-37.65 37.06-37.99L37.06-37.99Q36.96-38.82 36.91-39.67 36.87-40.53 36.87-41.41L36.87-41.41Q36.87-41.94 36.89-42.5 36.91-43.07 37.06-43.6L37.06-43.6Q36.77-44.04 36.69-44.46 36.62-44.87 36.57-45.21L36.57-45.21 36.47-45.95Q36.43-46.34 36.18-46.73L36.18-46.73Q36.13-46.78 36.13-47.02L36.13-47.02Q36.13-47.41 36.33-47.61L36.33-47.61Q36.08-48.44 35.67-49.22 35.25-50 35.16-50.93L35.16-50.93Q34.62-51.22 34.35-51.88 34.08-52.54 34.08-53.08L34.08-53.08Q34.08-53.71 34.42-54.32 34.77-54.93 35.5-54.93L35.5-54.93Q35.79-54.93 36.06-54.76 36.33-54.59 36.6-54.37 36.87-54.15 37.13-53.98 37.4-53.81 37.7-53.81L37.7-53.81Q37.89-53.81 38.28-53.91L38.28-53.91Q38.82-53.17 39.38-52.56 39.94-51.95 40.53-51.32L40.53-51.32Q40.53-50.49 40.82-49.8 41.11-49.12 41.46-48.51 41.8-47.9 42.07-47.31 42.33-46.73 42.29-46.04L42.29-46.04Q42.38-45.7 42.68-45.56 42.97-45.41 43.21-45.17ZM100-28.66L100-28.66Q100-27.88 99.73-27.05 99.46-26.22 99.07-25.54L99.07-25.54Q98.44-25.44 97.92-25.1 97.41-24.76 97.12-24.66L97.12-24.66Q96.48-24.56 95.63-24.58 94.77-24.61 94.09-24.56L94.09-24.56Q92.77-24.46 91.48-24.27 90.18-24.07 88.91-23.78L88.91-23.78Q88.82-23.78 88.72-23.75 88.62-23.73 88.62-23.63L88.62-23.63Q88.62-23.54 88.67-23.44 88.72-23.34 88.72-23.24L88.72-23.24Q88.72-23.1 88.43-23.1L88.43-23.1Q87.89-23.1 87.69-23.44L87.69-23.44Q86.13-23.05 84.57-22.63 83.01-22.22 81.44-21.83L81.44-21.83Q80.66-21.68 79.9-21.53 79.15-21.39 78.37-21.14L78.37-21.14Q77.98-21.04 77.59-20.8L77.59-20.8 76.8-20.31Q76.56-20.36 76.36-20.39 76.17-20.41 75.97-20.41L75.97-20.41Q75.14-20.41 74.22-20.09 73.29-19.78 72.6-19.24L72.6-19.24 72.26-19.24Q71.77-19.24 71.58-19.38L71.58-19.38Q71.14-19.43 71.04-19.12 70.94-18.8 70.7-18.55L70.7-18.55Q69.04-18.41 67.43-17.97 65.82-17.53 64.26-17.02 62.69-16.5 61.11-15.99 59.52-15.48 57.91-15.19L57.91-15.19Q57.71-14.21 57.71-12.94L57.71-12.94Q57.71-11.96 57.88-10.69 58.05-9.42 58.64-8.54L58.64-8.54 58.64-8.45Q58.64-8.2 58.44-8.11 58.25-8.01 58.25-7.76L58.25-7.76Q58.25-6.49 58.52-5.37 58.79-4.25 59.08-3.17 59.37-2.1 59.64-1.03 59.91 0.05 59.91 1.17L59.91 1.17Q59.91 1.46 59.89 1.73 59.86 2 59.81 2.29L59.81 2.29Q59.96 2.73 60.3 3.03 60.64 3.32 60.89 3.71L60.89 3.71Q60.94 3.96 60.94 4.15L60.94 4.15 60.94 4.64Q60.94 5.47 60.74 6.1 60.54 6.74 60.25 7.3 59.96 7.86 59.62 8.42 59.27 8.98 58.98 9.67L58.98 9.67Q58.49 9.77 58.2 9.77L58.2 9.77Q57.47 9.77 57 9.38 56.54 8.98 56.2 8.42 55.86 7.86 55.54 7.28 55.22 6.69 54.78 6.3L54.78 6.3Q54.83 6.05 54.86 5.86 54.88 5.66 54.88 5.42L54.88 5.42Q54.88 4.44 54.56 3.52 54.25 2.59 53.85 1.76L53.85 1.76Q53.81 0.1 53.51-1.51 53.22-3.13 52.68-4.69L52.68-4.69Q52.78-5.27 52.83-5.83 52.88-6.4 52.88-6.93L52.88-6.93Q52.88-8.35 52.73-9.77 52.59-11.18 52.68-12.6L52.68-12.6Q52.54-12.84 52.39-13.01 52.24-13.18 52.15-13.43L52.15-13.43 51.95-13.43Q51.22-13.43 50.53-13.31 49.85-13.18 49.17-13.18L49.17-13.18Q48.92-13.18 48.73-13.21 48.53-13.23 48.29-13.28L48.29-13.28Q47.75-13.82 47.46-14.5 47.17-15.19 47.17-15.92L47.17-15.92Q47.17-16.99 47.75-17.87L47.75-17.87Q48.97-18.16 50.17-18.58 51.36-18.99 52.49-19.58L52.49-19.58Q52.63-20.31 52.66-21.04 52.68-21.78 53.17-22.41L53.17-22.41Q53.02-22.8 52.71-23.12 52.39-23.44 52.39-23.88L52.39-23.88Q52.39-24.12 52.49-24.51L52.49-24.51Q52.98-25.05 53.17-25.88 53.37-26.71 53.51-27.64 53.66-28.56 53.83-29.49 54-30.42 54.44-31.15L54.44-31.15Q54.34-31.54 54.29-32.01 54.25-32.47 54.25-32.86L54.25-32.86Q54.25-33.45 54.32-34.06 54.39-34.67 54.59-35.21L54.59-35.21Q54.05-35.84 53.71-36.69 53.37-37.55 53.37-38.38L53.37-38.38Q53.37-39.99 54.93-40.43L54.93-40.43Q54.88-40.63 54.86-40.77 54.83-40.92 54.83-41.06L54.83-41.06Q54.83-41.5 55.08-41.89 55.32-42.29 55.47-42.68L55.47-42.68Q55.22-43.31 55.22-43.75L55.22-43.75Q55.22-44.14 55.37-44.46 55.52-44.78 55.61-45.17L55.61-45.17Q55.76-45.65 55.83-46.04 55.91-46.44 56.1-46.73 56.3-47.02 56.61-47.17 56.93-47.31 57.61-47.31L57.61-47.31Q58.69-47.31 59.69-46.66 60.69-46 61.23-45.17L61.23-45.17Q61.77-45.21 62.18-45.39 62.6-45.56 62.96-45.7 63.33-45.85 63.74-45.97 64.16-46.09 64.74-46.04L64.74-46.04Q64.89-46.39 65.26-46.51 65.62-46.63 66.01-46.7 66.4-46.78 66.75-46.92 67.09-47.07 67.19-47.46L67.19-47.46Q67.38-47.31 67.62-47.31L67.62-47.31Q67.87-47.31 68.11-47.39 68.36-47.46 68.65-47.46L68.65-47.46Q68.94-47.46 69.14-47.27L69.14-47.27Q70.41-47.95 71.85-48.27 73.29-48.58 74.7-48.63L74.7-48.63Q78.07-50.49 81.81-51.17 85.54-51.86 89.3-51.86L89.3-51.86Q89.84-51.86 90.35-51.88 90.87-51.9 91.35-51.81L91.35-51.81Q91.89-51.71 92.55-51.46 93.21-51.22 93.87-50.88 94.53-50.54 95.11-50.12 95.7-49.71 96.09-49.37L96.09-49.37Q96.48-48.49 96.48-47.66L96.48-47.66Q96.48-47.27 96.43-46.9 96.38-46.53 96.38-46.14L96.38-46.14Q96.38-45.56 96.63-44.82L96.63-44.82Q96.48-44.87 96.14-44.87L96.14-44.87Q95.7-44.87 95.41-44.68 95.11-44.48 94.87-44.24 94.63-43.99 94.41-43.8 94.19-43.6 93.99-43.6L93.99-43.6Q93.6-43.6 93.33-43.75 93.06-43.9 92.8-44.07 92.53-44.24 92.23-44.36 91.94-44.48 91.55-44.43L91.55-44.43 91.55-44.63Q91.55-45.17 91.21-45.34 90.87-45.51 90.67-45.85L90.67-45.85Q89.94-45.9 89.23-46.04 88.52-46.19 87.79-46.19L87.79-46.19Q86.81-46.19 86.28-45.51L86.28-45.51Q86.03-45.61 85.86-45.75 85.69-45.9 85.4-45.85L85.4-45.85 85.25-45.85Q82.61-45.85 80.08-45.29 77.54-44.73 75.05-43.92 72.56-43.12 70.07-42.19 67.58-41.26 65.09-40.58L65.09-40.58Q64.5-39.79 63.86-39.43 63.23-39.06 62.62-38.82 62.01-38.57 61.42-38.33 60.84-38.09 60.42-37.55 60.01-37.01 59.79-36.06 59.57-35.11 59.67-33.45L59.67-33.45Q59.42-33.15 59.37-32.81 59.32-32.47 59.27-32.15 59.23-31.84 59.13-31.54 59.03-31.25 58.79-31.01L58.79-31.01Q58.88-30.52 58.93-30.03 58.98-29.54 58.98-29.05L58.98-29.05Q58.98-27 58.3-25.05L58.3-25.05Q58.54-24.66 58.54-24.17L58.54-24.17Q58.54-23.63 58.4-23.19 58.25-22.75 58.25-22.22L58.25-22.22Q58.25-21.68 58.44-21.34L58.44-21.34Q58.74-21.34 58.79-21.14L58.79-21.14 59.08-21.14Q59.96-21.14 60.59-21.58 61.23-22.02 61.96-22.02L61.96-22.02Q62.11-22.02 62.3-21.92 62.5-21.83 62.64-21.83L62.64-21.83Q62.99-21.83 62.94-22.07 62.89-22.31 63.18-22.41L63.18-22.41 64.94-22.71Q66.6-23 68.09-23.41 69.58-23.83 71.04-24.66L71.04-24.66Q71.38-24.51 71.82-24.51L71.82-24.51Q72.21-24.51 72.65-24.63 73.09-24.76 73.48-24.76L73.48-24.76Q73.83-24.76 74.02-24.66L74.02-24.66Q74.31-24.85 74.75-24.98 75.19-25.1 75.24-25.54L75.24-25.54 75.34-25.54Q75.53-25.54 75.63-25.44 75.73-25.34 75.93-25.34L75.93-25.34 76.12-25.34Q77.15-25.83 77.98-26.07L77.98-26.07Q79.34-26.42 80.91-26.68 82.47-26.95 83.69-27.64L83.69-27.64Q85.1-27.64 86.45-28.1 87.79-28.56 89.16-28.56L89.16-28.56Q89.79-28.56 90.33-28.37L90.33-28.37Q90.82-28.71 91.48-28.86 92.14-29 92.58-29.39L92.58-29.39Q92.87-29.35 93.19-29.32 93.5-29.3 93.85-29.3L93.85-29.3Q95.31-29.3 96.65-29.71 98-30.13 99.41-30.32L99.41-30.32Q99.75-29.93 99.88-29.52 100-29.1 100-28.66ZM138.62-46.53L138.62-46.53Q138.23-46.29 137.79-46.24 137.35-46.19 136.88-46.12 136.42-46.04 136.03-45.9 135.64-45.75 135.44-45.36L135.44-45.36Q134.96-45.85 134.37-46.19 133.78-46.53 133.2-46.92L133.2-46.92Q132.71-46.78 132.22-46.53 131.73-46.29 131.25-46.29L131.25-46.29Q130.9-46.29 130.56-46.53L130.56-46.53Q130.17-46.24 129.66-46.07 129.15-45.9 128.58-45.75 128.02-45.61 127.56-45.36 127.09-45.12 126.9-44.63L126.9-44.63Q126.8-44.87 126.44-44.78 126.07-44.68 126.02-45.02L126.02-45.02Q124.46-44.48 122.85-44.09 121.24-43.7 119.62-43.26 118.01-42.82 116.45-42.29 114.89-41.75 113.42-40.97L113.42-40.97Q113.37-40.92 113.37-40.82L113.37-40.82Q113.37-40.33 113.52-39.89 113.67-39.45 113.76-39.06L113.76-39.06Q112.89-36.08 112.59-33.01 112.3-29.93 111.81-26.95L111.81-26.95 111.81-26.76Q111.81-26.51 112.01-26.39 112.2-26.27 112.2-25.98L112.2-25.98 112.15-25.88Q111.91-25.73 111.81-25.46 111.71-25.2 111.71-24.9L111.71-24.9Q111.71-24.71 111.81-24.32L111.81-24.32Q110.98-21.53 110.71-18.65 110.44-15.77 110.05-12.89L110.05-12.89 109.61-9.67Q109.52-9.38 109.44-9.11 109.37-8.84 109.37-8.54L109.37-8.54Q109.37-6.98 109.59-5.49 109.81-4 109.71-2.44L109.71-2.44Q110.15-1.76 110.15-1.12L110.15-1.12Q110.15-0.88 110.13-0.63 110.1-0.39 110.05-0.15L110.05-0.15Q110.69 0.49 111.54 0.76 112.4 1.03 113.08 1.61L113.08 1.61 113.08 1.81Q113.08 2.29 112.93 2.76 112.79 3.22 112.69 3.71L112.69 3.71Q112.59 4.1 112.47 4.83 112.35 5.57 112.15 5.81L112.15 5.81Q111.91 6.15 111.45 6.42 110.98 6.69 110.54 6.69L110.54 6.69Q110.4 6.69 110.13 6.54 109.86 6.4 109.71 6.3L109.71 6.3Q109.47 6.3 109.08 6.54 108.69 6.79 108.3 6.79L108.3 6.79Q108.1 6.79 107.95 6.76 107.81 6.74 107.61 6.64L107.61 6.64Q107.42 6.15 107.05 5.79 106.68 5.42 106.2 5.08L106.2 5.08Q106.25 4.39 105.95 4.05 105.66 3.71 105.37 3.17L105.37 3.17Q105.27 2.49 105.2 1.61 105.12 0.73 104.44 0.34L104.44 0.34Q104.68 0 104.68-0.59L104.68-0.59Q104.68-0.83 104.61-1.12 104.54-1.42 104.29-1.56L104.29-1.56 104.29-1.66Q104.24-1.9 104.46-2.03 104.68-2.15 104.68-2.39L104.68-2.39 104.68-2.59Q104.34-4.15 104.34-5.86L104.34-5.86Q104.34-7.47 104.44-9.06 104.54-10.64 104.44-12.26L104.44-12.26Q104.73-12.5 104.9-13.04 105.07-13.57 105.17-14.21 105.27-14.84 105.29-15.45 105.32-16.06 105.37-16.46L105.37-16.46Q105.61-19.24 106.15-21.95 106.68-24.66 106.78-27.49L106.78-27.49Q107.03-27.88 107.08-28.52 107.12-29.15 107.12-29.86 107.12-30.57 107.22-31.25 107.32-31.93 107.61-32.42L107.61-32.42Q107.61-33.79 107.86-35.18 108.1-36.57 108.1-37.99L108.1-37.99Q108.1-38.67 107.95-39.4L107.95-39.4Q107.47-39.6 107.08-39.6L107.08-39.6Q106.54-39.6 105.98-39.38 105.41-39.16 105.17-38.72L105.17-38.72Q104.1-38.67 103.07-38.38 102.05-38.09 101.02-38.09L101.02-38.09 100.53-38.09Q100.34-38.09 100.09-38.13L100.09-38.13Q99.75-37.99 99.38-37.89 99.02-37.79 99.07-37.3L99.07-37.3Q97.55-37.16 96.11-36.67 94.67-36.18 93.26-35.62 91.84-35.06 90.4-34.57 88.96-34.08 87.45-33.94L87.45-33.94Q86.91-33.69 86.76-32.91L86.76-32.91Q85.69-33.01 84.96-33.45 84.22-33.89 83.25-34.28L83.25-34.28Q82.95-35.3 82.95-36.23L82.95-36.23Q82.95-37.45 83.44-38.57 83.93-39.7 85-40.23L85-40.23Q85.25-40.19 85.44-40.16 85.64-40.14 85.88-40.14L85.88-40.14Q86.66-40.14 87.45-40.43 88.23-40.72 89.06-40.72L89.06-40.72Q89.3-40.72 89.59-40.58L89.59-40.58Q89.94-40.77 90.45-40.89 90.96-41.02 91.43-41.14 91.89-41.26 92.28-41.5 92.67-41.75 92.77-42.19L92.77-42.19Q93.01-41.99 93.31-41.94 93.6-41.89 93.89-41.89L93.89-41.89Q94.53-41.89 95.21-42.14 95.89-42.38 96.28-42.92L96.28-42.92Q96.63-42.53 97.26-42.53L97.26-42.53Q97.94-42.53 98.6-42.9 99.26-43.26 99.9-43.26L99.9-43.26Q100.39-43.26 100.63-42.92L100.63-42.92Q101.17-43.36 101.9-43.6 102.63-43.85 103.39-44.04 104.15-44.24 104.8-44.48 105.46-44.73 105.85-45.17L105.85-45.17Q106.1-45.12 106.64-45.12L106.64-45.12Q107.47-45.12 108.22-45.34 108.98-45.56 109.76-45.75L109.76-45.75 110.79-45.85Q111.18-45.9 111.49-46.09 111.81-46.29 112.15-46.44 112.5-46.58 112.86-46.68 113.23-46.78 113.76-46.73L113.76-46.73Q114.94-47.36 116.25-47.71 117.57-48.05 118.94-48.32 120.31-48.58 121.63-48.95 122.94-49.32 124.12-50.05L124.12-50.05 124.26-50.05Q125.24-50.05 126.19-50.39 127.14-50.73 127.97-51.32L127.97-51.32Q128.12-51.27 128.27-51.27L128.27-51.27 128.61-51.27Q129.98-51.27 131.27-51.66 132.56-52.05 133.98-52.05L133.98-52.05Q134.81-52.05 135.3-51.83 135.79-51.61 136.18-51.29 136.57-50.98 137.01-50.68 137.45-50.39 138.13-50.24L138.13-50.24Q138.57-49.41 138.57-48.46 138.57-47.51 138.62-46.53ZM154.63-28.27L154.63-28.27Q154.34-27.83 154.29-27.29 154.24-26.76 154.24-26.32L154.24-26.32Q154.24-25.73 154.26-25.17 154.29-24.61 154.29-24.07L154.29-24.07 154.29-23.34Q154.19-23 154-22.66 153.8-22.31 153.7-21.97L153.7-21.97Q153.02-20.17 153.02-18.36L153.02-18.36 153.02-18.26Q152.78-17.68 152.56-17.19 152.34-16.7 152.14-16.24 151.95-15.77 151.85-15.26 151.75-14.75 151.8-14.06L151.8-14.06Q151.12-12.35 149.99-10.96 148.87-9.57 147.8-8.11L147.8-8.11Q146.77-7.71 145.92-7.08 145.06-6.45 144.28-5.66L144.28-5.66Q142.77-5.18 141.3-4.54 139.84-3.91 138.66-2.83L138.66-2.83Q137.74-2.73 136.81-2.54 135.88-2.34 135-1.95L135-1.95 134.42-1.95Q133.98-1.95 133.78-2.15L133.78-2.15Q133.15-1.81 132.46-1.68 131.78-1.56 131.1-1.56L131.1-1.56Q130.22-1.56 129.36-1.68 128.51-1.81 127.63-1.95L127.63-1.95Q127.14-2.64 126.26-3 125.38-3.37 124.7-3.71L124.7-3.71Q123.28-5.66 122.65-7.5 122.01-9.33 121.33-11.62L121.33-11.62Q121.43-12.3 121.67-12.96 121.92-13.62 121.87-14.4L121.87-14.4Q122.75-16.94 124.19-19.02 125.63-21.09 127.48-23L127.48-23Q127.48-23.29 127.6-23.49 127.73-23.68 127.63-24.07L127.63-24.07Q127.68-24.02 127.82-24.02L127.82-24.02Q128.22-24.02 128.31-24.24 128.41-24.46 128.36-24.76L128.36-24.76Q130.12-25.88 131.56-27.34 133-28.81 134.86-29.79L134.86-29.79Q135-30.22 135.34-30.52 135.69-30.81 135.88-31.2L135.88-31.2Q137.44-31.64 138.71-32.52 139.98-33.4 141.4-34.08L141.4-34.08Q142.18-34.52 142.89-34.69 143.6-34.86 144.43-35.06L144.43-35.06Q144.72-35.16 144.96-35.21 145.21-35.25 145.5-35.25L145.5-35.25Q146.38-35.25 147.21-34.94 148.04-34.62 148.92-34.62L148.92-34.62Q149.16-34.62 149.33-34.64 149.5-34.67 149.7-34.72L149.7-34.72Q150.53-33.69 151.8-33.15L151.8-33.15Q152.09-32.42 152.51-31.88 152.92-31.35 153.36-30.83 153.8-30.32 154.17-29.71 154.53-29.1 154.63-28.27ZM149.75-25.73L149.75-25.73Q149.75-25.98 149.7-26.17L149.7-26.17Q149.21-26.32 148.77-26.56 148.33-26.81 147.8-26.81L147.8-26.81Q147.45-26.81 147.11-26.66L147.11-26.66Q147.06-27 146.84-27.15 146.62-27.29 146.35-27.42 146.09-27.54 145.82-27.61 145.55-27.69 145.35-27.88L145.35-27.88Q145.21-28.27 145.04-28.69 144.87-29.1 144.43-29.3L144.43-29.3Q143.99-28.86 143.4-28.59 142.81-28.32 142.2-28.08 141.59-27.83 141.03-27.49 140.47-27.15 140.08-26.66L140.08-26.66 139.2-26.66Q138.91-26.12 138.37-25.85 137.83-25.59 137.44-25.1L137.44-25.1Q136.66-24.71 136-24.15 135.34-23.58 134.71-22.97 134.07-22.36 133.46-21.73 132.85-21.09 132.17-20.56L132.17-20.56Q131.54-19.19 130.78-18.19 130.02-17.19 129.36-16.16 128.7-15.14 128.24-13.94 127.78-12.74 127.78-10.99L127.78-10.99 127.78-10.5Q127.78-10.25 127.82-10.01L127.82-10.01Q128.46-9.33 128.87-8.54 129.29-7.76 130.27-7.42L130.27-7.42Q131.24-7.03 132.34-7.08 133.44-7.13 134.47-6.84L134.47-6.84Q136.81-7.28 138.98-8.28 141.15-9.28 143.11-10.69L143.11-10.69Q143.4-10.94 143.79-11.21 144.18-11.47 144.43-11.77L144.43-11.77Q144.67-12.01 144.84-12.3 145.01-12.6 145.21-12.84L145.21-12.84Q145.6-13.48 146.09-14.11 146.57-14.75 147.11-15.28L147.11-15.28Q147.36-16.36 147.75-17.36 148.14-18.36 148.53-19.34 148.92-20.31 149.19-21.34 149.46-22.36 149.46-23.49L149.46-23.49Q149.46-23.73 149.43-24.02 149.41-24.32 149.36-24.56L149.36-24.56Q149.75-25.1 149.75-25.73ZM184.61-12.55L184.61-12.55Q184.61-12.01 184.22-11.74 183.83-11.47 183.83-11.04L183.83-11.04Q183.83-10.84 184.02-10.55L184.02-10.55Q183.34-10.55 183.1-10.11 182.85-9.67 182.61-9.13L182.61-9.13 181.97-9.13Q181.73-9.13 181.58-9.03 181.44-8.94 181.31-8.76 181.19-8.59 181-8.25L181-8.25Q180.07-8.06 179.21-7.64 178.36-7.23 177.55-6.76 176.75-6.3 175.92-5.83 175.09-5.37 174.21-5.08L174.21-5.08Q173.77-4.35 172.94-3.91L172.94-3.91 172.79-3.91Q172.55-3.86 172.38-3.98 172.21-4.1 171.96-4.1L171.96-4.1Q171.82-4.1 171.77-4.05L171.77-4.05Q170.3-3.08 168.5-3.08L168.5-3.08Q168.01-3.08 167.57-3.15 167.13-3.22 166.64-3.22L166.64-3.22Q166.49-3.22 166.45-3.13L166.45-3.13 166.35-2.93Q166.3-2.83 166.23-2.73 166.15-2.64 165.86-2.64L165.86-2.64Q165.32-2.64 164.78-2.78 164.25-2.93 163.66-2.83L163.66-2.83Q162.54-3.47 161.9-4.05 161.27-4.64 160.73-5.81L160.73-5.81Q160.49-6.35 160.07-6.84 159.66-7.32 159.46-7.91L159.46-7.91Q159.41-8.11 159.32-8.62 159.22-9.13 159.12-9.72 159.02-10.3 158.95-10.84 158.88-11.38 158.88-11.57L158.88-11.57Q158.88-12.16 158.95-12.72 159.02-13.28 159.12-13.87L159.12-13.87Q159.41-15.72 159.54-17.6 159.66-19.48 160.34-21.24L160.34-21.24Q160.24-21.78 160.24-22.27L160.24-22.27 160.24-23.34Q160.24-24.27 160-24.9L160-24.9Q160.39-25.54 160.39-26.32L160.39-26.32Q160.39-27.2 159.66-27.34L159.66-27.34 159.66-27.49Q159.66-28.52 158.97-29.1L158.97-29.1Q158.97-30.81 159.83-31.67 160.68-32.52 162.1-33.15L162.1-33.15Q162.29-33.45 162.25-33.64L162.25-33.64Q162.59-33.54 162.88-33.45 163.17-33.35 163.47-33.35L163.47-33.35Q163.95-33.35 164.35-33.5L164.35-33.5Q164.49-32.91 165.1-32.79 165.71-32.67 166.1-32.47L166.1-32.47 166.1-31.84Q166.1-30.32 166.84-28.96L166.84-28.96Q166.64-28.56 166.59-28.13 166.54-27.69 166.54-27.29L166.54-27.29Q166.54-26.71 166.59-26.12 166.64-25.54 166.64-25L166.64-25Q166.64-24.41 166.52-23.83 166.4-23.24 165.96-22.8L165.96-22.8Q165.91-22.17 165.88-21.36 165.86-20.56 165.79-19.73 165.71-18.9 165.52-18.12 165.32-17.33 164.93-16.85L164.93-16.85Q164.88-16.11 164.86-15.36 164.83-14.6 164.83-13.92L164.83-13.92Q164.83-12.84 164.96-11.38 165.08-9.91 165.62-8.94L165.62-8.94Q165.86-8.54 166.57-8.35 167.28-8.15 167.71-8.15L167.71-8.15Q168.25-8.15 168.81-8.33 169.37-8.5 169.62-8.94L169.62-8.94Q169.91-8.89 170.01-8.64 170.11-8.4 170.35-8.25L170.35-8.25Q173.13-9.42 175.92-10.5 178.7-11.57 181.39-12.99L181.39-12.99Q181.78-12.79 182.22-12.79L182.22-12.79Q182.7-12.79 183.19-12.89 183.68-12.99 184.17-12.99L184.17-12.99 184.51-12.99Q184.61-12.7 184.61-12.55Z" opacity="1" transform="matrix(1,0,0,1,0,0)" fill="#f9f9f9" class="undefined-text-0" data-fill-palette-color="quaternary" id="text-0"/>
                        </svg>
                      </g>
                    </svg>
                  </g>
                </svg>
              </g>
            </svg>
          </g>
          <g/>
        </svg>
      </g>
    </svg>
  </g>
</svg>