<svg
  version="1.1"
  id="Layer_1"
  xmlns="http://www.w3.org/2000/svg"
  x="0"
  y="0"
  viewBox="0 0 32 32"
  style="enable-background:new 0 0 32 32"
  xml:space="preserve"
><path
    fill="#ffd166"
    d="M16 7c-1.654 0-3-1.346-3-3s1.346-3 3-3 3 1.346 3 3-1.346 3-3 3zm0-4a1.001 1.001 0 0 0 0 2 1.001 1.001 0 0 0 0-2zM16 31a4.505 4.505 0 0 1-4.5-4.5 1 1 0 1 1 2 0c0 1.379 1.122 2.5 2.5 2.5s2.5-1.121 2.5-2.5a1 1 0 1 1 2 0c0 2.481-2.019 4.5-4.5 4.5z"
  /><path
    fill="#ffd166"
    d="M24.374 23.75a1 1 0 0 1-.982-.815C23 20.843 23 18.005 23 15c0-5.832-1.897-8-7-8s-7 2.168-7 8c0 3.005 0 5.843-.392 7.935a1 1 0 0 1-1.966-.369C7 20.657 7 17.909 7 15 7 8.084 9.776 5 16 5s9 3.084 9 10c0 2.909 0 5.657.358 7.565a1 1 0 0 1-.984 1.185z"
  /><path
    fill="#ffd166"
    d="M25.5 27h-19C5.122 27 4 25.879 4 24.5S5.122 22 6.5 22h3.435a1 1 0 1 1 0 2H6.5a.5.5 0 0 0 0 1h19a.5.5 0 0 0 0-1h-3.601a1 1 0 1 1 0-2H25.5c1.378 0 2.5 1.121 2.5 2.5S26.878 27 25.5 27z"
  /><path
    d="M20 16a1 1 0 0 1-1-1c0-3.639-.868-4-3-4a1 1 0 1 1 0-2c3.598 0 5 1.683 5 6a1 1 0 0 1-1 1z"
    fill="#ffd166"
  /></svg>
